# xmcd
# Copyright (C) 1995-1998 Ti Kan
#
# Track frame offsets:
#       182
#       23082
#       43120
#       65035
#       82957
#       110175
#       124342
#       140132
#       170910
#       195040
#       215030
#       239715
#       258865
#       274872
#
# Disc length: 3785 seconds
#
# Revision: 0
# Processed by: cddbd v1.5.2PL0 Copyright (c) Steve Scherf et al.
# Submitted via: CD-Import v1.0
#
DISCID=dc0ec70e
DTITLE=Bill Frisell - Nashville
DYEAR=1900
DGENRE=
TTITLE0=Gimme A Holler
TTITLE1=Go Jake
TTITLE2=One Of These Days
TTITLE3=Mr. Memory
TTITLE4=Brother
TTITLE5=Will Jesus Wash The Bloodstains From Your Hands
TTITLE6=Keep Your Eyes Open
TTITLE7=Pipe Down
TTITLE8=Family
TTITLE9=We're Not From Around Here
TTITLE10=Dogwood Acres 
TTITLE11=Shucks
TTITLE12=The End Of The World
TTITLE13=Gone
EXTD=
EXTT0=
EXTT1=
EXTT2=
EXTT3=
EXTT4=
EXTT5=
EXTT6=
EXTT7=
EXTT8=
EXTT9=
EXTT10=
EXTT11=
EXTT12=
EXTT13=
PLAYORDER=
